<svg xmlns="http://www.w3.org/2000/svg" viewBox="0 0 363.02 376.72"><defs><style>.cls-1{fill:#2d2a2b;}.cls-2{fill:#a97c50;}.cls-3{fill:#8b5e3c;}.cls-4{fill:#fff;}.cls-5{fill:#d1d3d4;}</style></defs><g id="Layer_2" data-name="Layer 2"><g id="Layer_1-2" data-name="Layer 1"><path class="cls-1" d="M353.67,208.17c-11.86,0-17.25-6.47-17.25-21.21V107.18c0-30.55-15.09-42.77-51.39-42.77H245a4.93,4.93,0,0,0-4.93,4.93v85.18c0,35.49-28.34,64.94-63.82,65.29a64.54,64.54,0,0,1-65.1-64.46v-86a4.93,4.93,0,0,0-4.93-4.93H78c-36.3,0-51.39,12.22-51.39,42.77V187c0,14.74-5.4,21.21-17.26,21.21h0A9.34,9.34,0,0,0,0,217.51v6.11A9.35,9.35,0,0,0,9.34,233h0c11.86,0,17.26,6.46,17.26,21.56V334c0,30.55,15.09,42.77,51.39,42.77h.72a9.34,9.34,0,0,0,9.34-9.34v-5.77a9.36,9.36,0,0,0-8.59-9.31c-19.54-1.7-27.35-9.79-27.35-26.25V256c0-20.85-5.75-30.91-20.84-35.22,15.09-4.68,20.84-14.74,20.84-35.58V115.45c0-18.68,10-26.95,35.9-27h0a4.93,4.93,0,0,1,4.92,4.93v61c0,45.77,36.76,83.58,82.52,83.69a82.87,82.87,0,0,0,80.46-62.67,41.37,41.37,0,0,0,2.46-81.81v-.17a4.93,4.93,0,0,1,4.93-4.93H275c25.87,0,35.94,8.27,35.94,27v69.72c0,20.84,5.75,30.9,20.84,35.58-15.09,4.31-20.84,14.37-20.84,35.22v70.08c0,16.46-7.81,24.55-27.35,26.25a9.36,9.36,0,0,0-8.59,9.31v5.77a9.34,9.34,0,0,0,9.34,9.34H285c36.3,0,51.39-12.22,51.39-42.77V254.53c0-15.1,5.39-21.56,17.25-21.56h0a9.35,9.35,0,0,0,9.35-9.35v-6.11a9.35,9.35,0,0,0-9.35-9.34Zm-95.22-99.52a26.7,26.7,0,0,1,0,51.33Z"/><path class="cls-2" d="M201.43,136.58a54.65,54.65,0,0,0,10.83-4.81c1.77-1.07,3.48-2.3,5.28-3.32-50.54-7-101.09,3.14-101.09,3.14C143,143.32,173.93,145.9,201.43,136.58Z"/><path class="cls-3" d="M234.85,131.59a12.71,12.71,0,0,0-13.32-4.86c-3.41.91-6.25,3.21-9.27,5a54.65,54.65,0,0,1-10.83,4.81c-27.5,9.32-58.41,6.74-85-5v23.27a59.26,59.26,0,0,0,59.78,59.19c32.6-.31,58.62-27.36,58.62-60Z"/><path class="cls-4" d="M149.76,165.6a6.09,6.09,0,1,1-6.08-6.09A6.08,6.08,0,0,1,149.76,165.6Z"/><path class="cls-4" d="M134.85,152.51a2.74,2.74,0,1,1-2.74-2.74A2.74,2.74,0,0,1,134.85,152.51Z"/><path class="cls-5" d="M193.76,51.75c-6.94-10.58-19.54-14.49-27.88-23.35-8.06-8.6-5.6-23.83,1.1-28.4-9.75,3.05-19.18,18.82-12.8,36.88,3.44,9.75,12,15.3,18.8,24,6,7.69,11,15.73,10.75,25.44-.25,9.38-5.28,18.92-10.69,26.37,4.91-3.89,8.4-6.15,12.54-10.29,4.87-4.88,10.36-10.67,13.41-20.73C202.17,71.19,200.21,61.57,193.76,51.75Z"/><path class="cls-5" d="M178.87,93c.75-7.42-4-14.38-9.86-19.15-4.1-3.31-9.85-5.7-11.95-10.9s-.14-11.4,2.31-14.75c-3.06,1.82-5.39,5-6.85,9.22-3.47,10,2,17.6,10.5,25.83,3.51,3.38,6.35,5.85,8,10.61,3.12,6.74-.06,13.77-2.5,19.87C175.2,107,178,102.11,178.87,93Z"/></g></g></svg>